<?xml version="1.0" encoding="UTF-8" standalone="no"?>
<!-- Created with Inkscape (http://www.inkscape.org/) -->

<svg
   width="47.051392mm"
   height="12.82041mm"
   viewBox="0 0 47.051392 12.82041"
   version="1.1"
   id="svg933"
   inkscape:version="1.1.1 (3bf5ae0d25, 2021-09-20)"
   sodipodi:docname="Miditel_logo.svg"
   xmlns:inkscape="http://www.inkscape.org/namespaces/inkscape"
   xmlns:sodipodi="http://sodipodi.sourceforge.net/DTD/sodipodi-0.dtd"
   xmlns="http://www.w3.org/2000/svg"
   xmlns:svg="http://www.w3.org/2000/svg">
  <sodipodi:namedview
     id="namedview935"
     pagecolor="#ffffff"
     bordercolor="#666666"
     borderopacity="1.0"
     inkscape:pageshadow="2"
     inkscape:pageopacity="0.0"
     inkscape:pagecheckerboard="0"
     inkscape:document-units="mm"
     showgrid="false"
     fit-margin-top="0"
     fit-margin-left="0"
     fit-margin-right="0"
     fit-margin-bottom="0"
     inkscape:zoom="0.64052329"
     inkscape:cx="-39.030587"
     inkscape:cy="72.596892"
     inkscape:window-width="1920"
     inkscape:window-height="991"
     inkscape:window-x="-9"
     inkscape:window-y="-9"
     inkscape:window-maximized="1"
     inkscape:current-layer="layer1" />
  <defs
     id="defs930" />
  <g
     inkscape:label="Calque 1"
     inkscape:groupmode="layer"
     id="layer1"
     transform="translate(-115.26707,-129.49104)">
    <g
       aria-label="MIDITEL 1"
       id="text2726"
       style="font-size:19.7517px;line-height:1.25;letter-spacing:-0.21px;word-spacing:-4.41px;display:inline;stroke-width:0.493789"
       transform="matrix(0.26458333,0,0,0.26458333,-46.497453,-116.18664)">
      <path
         d="m 629.10784,959.50323 3.02201,-14.24097 h 6.30079 l 0.67156,9.44131 4.85892,-9.44131 h 6.16253 l -3.04177,14.24097 h -3.75282 l 2.2517,-10.31038 -5.66874,10.31038 h -3.98985 l -1.10609,-10.27088 -2.11343,10.27088 z"
         style="font-style:italic;font-weight:900;font-family:Ultimate-Serial-ExtraBold;-inkscape-font-specification:'Ultimate-Serial-ExtraBold, Heavy Italic'"
         id="path30615" />
      <path
         d="m 648.88654,959.50323 3.02201,-14.24097 h 4.46389 l -3.02201,14.24097 z"
         style="font-style:italic;font-weight:900;font-family:Ultimate-Serial-ExtraBold;-inkscape-font-specification:'Ultimate-Serial-ExtraBold, Heavy Italic'"
         id="path30617" />
      <path
         d="m 655.17482,959.50323 3.02201,-14.24097 h 5.7675 q 1.69864,0 2.76524,0.19752 1.06659,0.19751 1.89616,0.67155 2.01467,1.1456 2.01467,4.18736 0,1.7184 -0.6518,3.51581 -0.65181,1.77765 -1.73815,3.02201 -1.06659,1.24435 -2.40971,1.93566 -1.32336,0.67156 -2.92325,0.67156 l -2.11343,0.0395 z m 6.89335,-11.75226 -1.95542,9.22405 h 1.2246 q 0.5333,0 0.86908,-0.0593 0.84932,-0.0988 1.56038,-0.63205 0.73081,-0.5333 1.16535,-1.38262 0.45429,-0.84932 0.79007,-2.17269 0.33578,-1.32336 0.33578,-2.3307 0,-1.38262 -0.63206,-2.01467 -0.63205,-0.63206 -2.03442,-0.63206 z"
         style="font-style:italic;font-weight:900;font-family:Ultimate-Serial-ExtraBold;-inkscape-font-specification:'Ultimate-Serial-ExtraBold, Heavy Italic'"
         id="path30619" />
      <path
         d="m 670.27238,959.50323 3.02201,-14.24097 h 4.46389 l -3.02201,14.24097 z"
         style="font-style:italic;font-weight:900;font-family:Ultimate-Serial-ExtraBold;-inkscape-font-specification:'Ultimate-Serial-ExtraBold, Heavy Italic'"
         id="path30621" />
      <path
         d="m 677.84452,948.16576 0.59255,-2.9035 h 12.08804 l -0.6123,2.9035 h -3.81208 l -2.4097,11.33747 h -4.46389 l 2.40971,-11.33747 z"
         style="font-style:italic;font-weight:900;font-family:Ultimate-Serial-ExtraBold;-inkscape-font-specification:'Ultimate-Serial-ExtraBold, Heavy Italic'"
         id="path30623" />
      <path
         d="m 688.20165,959.50323 3.02201,-14.24097 h 10.25113 l -0.59255,2.84424 h -5.92551 l -0.59255,2.68624 h 5.66874 l -0.63205,2.943 h -5.64899 l -0.6123,2.92325 h 6.00451 l -0.59255,2.84424 z"
         style="font-style:italic;font-weight:900;font-family:Ultimate-Serial-ExtraBold;-inkscape-font-specification:'Ultimate-Serial-ExtraBold, Heavy Italic'"
         id="path30625" />
      <path
         d="m 699.86242,959.50323 3.02201,-14.24097 h 4.46389 l -2.40971,11.35723 h 5.55023 l -0.61231,2.88374 z"
         style="font-style:italic;font-weight:900;font-family:Ultimate-Serial-ExtraBold;-inkscape-font-specification:'Ultimate-Serial-ExtraBold, Heavy Italic'"
         id="path30627" />
      <path
         d="m 714.80382,950.71373 0.67156,-3.27878 q 1.34311,-0.4938 2.11343,-0.94809 0.79007,-0.45428 1.56038,-1.2246 h 3.55531 l -3.02201,14.24097 h -4.22687 l 2.15294,-10.15237 q -0.69131,0.47404 -1.30361,0.77032 -0.59255,0.27652 -1.50113,0.59255 z"
         style="font-style:italic;font-weight:900;font-family:Ultimate-Serial-ExtraBold;-inkscape-font-specification:'Ultimate-Serial-ExtraBold, Heavy Italic'"
         id="path30629" />
    </g>
    <path
       id="rect3828"
       style="color:#000000;display:inline;fill:#000000;stroke-width:0.264583;stroke-linecap:square;stroke-linejoin:round;-inkscape-stroke:none;paint-order:markers stroke fill"
       d="m 117.25042,129.49104 c -1.09317,0 -1.98335,0.89069 -1.98335,1.98386 v 8.85269 c 0,1.09317 0.89018,1.98386 1.98335,1.98386 h 30.41674 1.61593 1.19424 1.38544 0.89659 7.57525 c 1.09318,0 1.98385,-0.89068 1.98385,-1.98386 v -8.85269 c 0,-1.09318 -0.89067,-1.98386 -1.98385,-1.98386 h -7.52358 -0.94826 -1.98334 -1.00407 -1.2082 z m 0,0.66095 h 30.41674 c 0.73845,0 1.3224,0.58447 1.3224,1.32291 v 0.21859 7.21662 1.0759 0.34158 c 0,0.73845 -0.58395,1.32292 -1.3224,1.32292 h -30.41674 c -0.73845,0 -1.32241,-0.58447 -1.32241,-1.32292 v -8.85269 c 0,-0.73844 0.58396,-1.32291 1.32241,-1.32291 z m 34.61235,0 h 0.94826 7.52358 c 0.73843,0 1.32291,0.58448 1.32291,1.32291 v 8.85269 c 0,0.73843 -0.58448,1.32292 -1.32291,1.32292 h -7.57525 -0.89659 c -0.73843,0 -1.3224,-0.58449 -1.3224,-1.32292 v -5.57434 -3.27835 c 0,-0.73843 0.58397,-1.32291 1.3224,-1.32291 z"
       sodipodi:nodetypes="sssscccccsssscccccsssscccssssssscsssscsscss" />
    <path
       id="path0"
       d="m 151.0822,131.9168 v 1.36998 h 0.13549 0.13549 v -1.23449 -1.23448 h 1.23449 1.23449 v -0.1355 -0.13549 h -1.36998 -1.36998 v 1.36998 m 7.29651,-1.23449 v 0.1355 h 1.23449 1.23448 v 1.23448 1.23449 h 0.1355 0.13549 v -1.36998 -1.36998 h -1.36998 -1.36998 v 0.13549 m -4.72602,1.38047 c -0.53986,0.14136 -0.57933,0.91028 -0.0565,1.09955 l 0.0603,0.0219 0.006,0.58573 c 0.006,0.62128 0.01,0.66938 0.0647,0.88233 0.12319,0.47543 0.43169,0.92063 0.82595,1.19188 0.0867,0.0596 0.0868,0.0542 -0.003,0.11645 -0.39709,0.2763 -0.70015,0.71419 -0.82337,1.18975 -0.0552,0.21292 -0.0587,0.2611 -0.0647,0.88197 l -0.006,0.58541 -0.0546,0.0192 c -0.59629,0.20989 -0.44193,1.12339 0.18984,1.12339 0.65884,0 0.80568,-0.93312 0.17837,-1.13368 l -0.0376,-0.012 2e-5,-0.4634 c 3e-5,-0.64675 0.0139,-0.79298 0.10016,-1.05195 0.11821,-0.35509 0.35133,-0.67423 0.65255,-0.89337 0.13339,-0.097 0.009,-0.0308 1.78148,-0.94676 0.53042,-0.27408 0.59268,-0.31226 0.70862,-0.43476 0.17807,-0.18808 0.27997,-0.43902 0.27997,-0.68941 v -0.0717 l 0.0537,-0.0169 c 0.16821,-0.053 0.3242,-0.23207 0.36342,-0.41714 0.11981,-0.56518 -0.56759,-0.93829 -0.97499,-0.5292 -0.30499,0.30624 -0.16977,0.83792 0.24421,0.96021 0.1098,0.0325 0.001,0.39913 -0.1716,0.57993 -0.0731,0.0764 -0.15411,0.12546 -0.51585,0.31237 l -0.35372,0.18276 -0.35384,-0.18282 c -0.55818,-0.28837 -0.65929,-0.38856 -0.7151,-0.70845 -0.026,-0.14909 -0.023,-0.16883 0.0276,-0.18379 0.41418,-0.12237 0.54934,-0.65382 0.24421,-0.96021 -0.40748,-0.40917 -1.09483,-0.0361 -0.97499,0.5292 0.0391,0.18434 0.19523,0.36412 0.36196,0.41668 l 0.0522,0.0165 0.006,0.11657 c 0.0137,0.26324 0.11793,0.49407 0.30458,0.67433 0.10729,0.10366 0.15757,0.13541 0.46735,0.29525 0.14751,0.0761 0.26602,0.14191 0.26336,0.14623 -0.003,0.004 -0.10192,0.0579 -0.22053,0.11903 -0.11863,0.0612 -0.31201,0.16083 -0.42973,0.22153 l -0.21403,0.11033 -0.0863,-0.0514 c -0.37985,-0.22645 -0.66406,-0.58061 -0.80434,-1.00227 -0.0829,-0.24933 -0.0985,-0.42376 -0.0943,-1.05774 l 0.003,-0.45054 0.0407,-0.012 c 0.12819,-0.0379 0.26426,-0.15092 0.32772,-0.27229 0.23648,-0.45249 -0.16357,-0.96481 -0.65328,-0.83654 m 4.61981,-0.006 c -0.56158,0.12219 -0.59827,0.95043 -0.0494,1.11447 l 0.0402,0.012 0.003,0.4405 c 0.005,0.84638 -0.0477,1.10983 -0.30192,1.49774 -0.23575,0.35968 -0.37641,0.46373 -1.20638,0.89252 -1.71089,0.88386 -1.5739,0.80871 -1.70462,0.93497 -0.18666,0.18026 -0.29091,0.4111 -0.30458,0.67432 l -0.006,0.11658 -0.0522,0.0164 c -0.2263,0.0713 -0.38882,0.32326 -0.37316,0.57844 0.0305,0.49697 0.63626,0.72277 0.98586,0.36745 0.30466,-0.30964 0.17052,-0.83776 -0.24389,-0.96021 -0.11522,-0.0341 0.0102,-0.42991 0.18914,-0.59704 0.0838,-0.0783 0.11986,-0.0996 0.49823,-0.29525 l 0.35369,-0.18284 0.35368,0.18276 c 0.38347,0.19815 0.43812,0.23125 0.5158,0.31244 0.1286,0.13439 0.19391,0.28509 0.21054,0.48572 l 0.007,0.0808 -0.0439,0.013 c -0.41548,0.12282 -0.55115,0.6537 -0.24549,0.96062 0.4074,0.40909 1.0948,0.036 0.97499,-0.5292 -0.0391,-0.18435 -0.19523,-0.36413 -0.36196,-0.41669 l -0.0522,-0.0165 -0.006,-0.11658 c -0.0137,-0.26323 -0.11793,-0.49407 -0.30459,-0.67432 -0.10728,-0.10366 -0.15757,-0.13542 -0.46734,-0.29525 -0.14751,-0.0761 -0.26602,-0.14191 -0.26336,-0.14621 0.004,-0.007 0.0945,-0.0544 0.67177,-0.35223 l 0.19036,-0.0982 0.0555,0.0313 c 0.39042,0.21995 0.69214,0.58563 0.83323,1.00985 0.0863,0.25937 0.10041,0.40753 0.10044,1.05265 l 2e-5,0.46341 -0.0376,0.012 c -0.69265,0.22143 -0.41815,1.2674 0.29356,1.11864 0.55939,-0.11693 0.61338,-0.91872 0.0746,-1.10836 l -0.0546,-0.0192 -0.006,-0.5854 c -0.005,-0.54573 -0.007,-0.59355 -0.0277,-0.70583 -0.10476,-0.5716 -0.41832,-1.06523 -0.87337,-1.37485 -0.0732,-0.0499 -0.0734,-0.0501 -0.0501,-0.0652 0.43238,-0.28067 0.75951,-0.73974 0.88698,-1.24467 0.0563,-0.22286 0.0578,-0.24451 0.0641,-0.87144 l 0.006,-0.58541 0.0546,-0.0192 c 0.67304,-0.23692 0.37169,-1.26041 -0.32639,-1.10851 m -4.36836,0.28203 c 0.1579,0.0516 0.24434,0.26413 0.16701,0.41066 -0.0809,0.15331 -0.25412,0.21494 -0.40115,0.14272 -0.34406,-0.16896 -0.13093,-0.67264 0.23414,-0.55338 m 4.62097,0.009 c 0.10536,0.0476 0.17557,0.15364 0.17609,0.26597 0.001,0.27768 -0.3248,0.41368 -0.51484,0.21473 -0.22976,-0.24055 0.0359,-0.61749 0.33875,-0.4807 m -3.52699,0.87513 c 0.2008,0.0632 0.26052,0.33853 0.10707,0.49352 -0.23137,0.23368 -0.624,-0.0339 -0.48743,-0.33215 0.0691,-0.15093 0.21584,-0.21318 0.38036,-0.16137 m 2.43301,0.008 c 0.17622,0.0796 0.23218,0.29917 0.11558,0.45345 -0.12262,0.16224 -0.3646,0.16144 -0.48193,-0.002 -0.18123,-0.25187 0.0842,-0.57926 0.36635,-0.45182 m -2.41228,4.79265 c 0.19355,0.0916 0.23543,0.33595 0.0836,0.48777 -0.14307,0.14307 -0.38542,0.10431 -0.47761,-0.0764 -0.12862,-0.25211 0.13938,-0.53193 0.39401,-0.41139 m 2.39317,-0.008 c 0.20412,0.0764 0.26203,0.34111 0.10824,0.49492 -0.15411,0.15409 -0.41842,0.0963 -0.49492,-0.10824 -0.0903,-0.2413 0.14538,-0.47698 0.38668,-0.38668 m -6.32985,1.87024 v 1.36997 h 1.36998 1.36997 v -0.13548 -0.1355 h -1.23448 -1.23449 v -1.23448 -1.23449 h -0.13534 -0.13549 v 1.36998 m 9.76548,-0.13549 v 1.23448 h -1.23448 -1.23449 v 0.1355 0.13548 h 1.36998 1.36998 v -1.36997 -1.36998 h -0.13549 -0.1355 v 1.23449 m -6.95392,-0.85606 c 0.077,0.0245 0.1712,0.11876 0.19341,0.19361 0.0898,0.30222 -0.27889,0.52746 -0.50055,0.30583 -0.22231,-0.22233 0.007,-0.59494 0.30714,-0.49944 m 4.62729,0.0106 c 0.19463,0.0861 0.24359,0.33847 0.0945,0.48749 -0.15093,0.15093 -0.40355,0.10418 -0.48973,-0.0906 -0.1091,-0.24665 0.14894,-0.50578 0.39518,-0.39684"
       stroke="none"
       fill="#000000"
       fill-rule="evenodd"
       style="display:inline;stroke-width:0.0250911" />
  </g>
</svg>
