<?xml version="1.0" encoding="UTF-8" standalone="no"?>
<svg
   viewBox="0 0 1122.5196 793.70083"
   width="1122.5197"
   height="793.70081"
   version="1.1"
   id="svg874"
   sodipodi:docname="Top_Platev004.svg"
   inkscape:version="1.4 (86a8ad7, 2024-10-11)"
   xmlns:inkscape="http://www.inkscape.org/namespaces/inkscape"
   xmlns:sodipodi="http://sodipodi.sourceforge.net/DTD/sodipodi-0.dtd"
   xmlns="http://www.w3.org/2000/svg"
   xmlns:svg="http://www.w3.org/2000/svg">
  <sodipodi:namedview
     id="namedview876"
     pagecolor="#ffffff"
     bordercolor="#666666"
     borderopacity="1.0"
     inkscape:pageshadow="2"
     inkscape:pageopacity="0.0"
     inkscape:pagecheckerboard="0"
     showgrid="false"
     units="in"
     inkscape:snap-intersection-paths="true"
     inkscape:snap-midpoints="true"
     inkscape:snap-smooth-nodes="true"
     inkscape:object-paths="true"
     inkscape:zoom="0.6405233"
     inkscape:cx="825.1066"
     inkscape:cy="354.39772"
     inkscape:window-width="1059"
     inkscape:window-height="822"
     inkscape:window-x="714"
     inkscape:window-y="0"
     inkscape:window-maximized="0"
     inkscape:current-layer="g872"
     inkscape:showpageshadow="2"
     inkscape:deskcolor="#d1d1d1" />
  <desc
     id="desc824">Top_Platev003_work.dxf - scale = 1.0, origin = (0.0, 0.0), method = manual</desc>
  <defs
     id="defs838">
    <marker
       id="DistanceX"
       orient="auto"
       refX="0"
       refY="0"
       style="overflow:visible">
      <path
         d="M 3,-3 -3,3 M 0,-5 V 5"
         style="stroke:#000000;stroke-width:0.5"
         id="path826" />
    </marker>
    <pattern
       id="Hatch"
       patternUnits="userSpaceOnUse"
       width="8"
       height="8"
       x="0"
       y="0">
      <path
         d="M8 4 l-4,4"
         stroke="#000000"
         stroke-width="0.25"
         linecap="square"
         id="path829" />
      <path
         d="M6 2 l-4,4"
         stroke="#000000"
         stroke-width="0.25"
         linecap="square"
         id="path831" />
      <path
         d="M4 0 l-4,4"
         stroke="#000000"
         stroke-width="0.25"
         linecap="square"
         id="path833" />
    </pattern>
    <symbol
       id="*Model_Space" />
    <symbol
       id="*Paper_Space" />
  </defs>
  <g
     inkscape:groupmode="layer"
     id="layer4"
     inkscape:label="Lines">
    <path
       d="m 468.28345,377.00782 a 5.669295,5.669295 0 1 0 11.33859,0 5.669295,5.669295 0 1 0 -11.33859,0 z"
       style="fill:none;stroke:#000000"
       id="path18" />
    <path
       d="m 337.88975,282.51975 a 5.6692915,5.6692915 0 1 0 11.33858,0 5.6692915,5.6692915 0 1 0 -11.33858,0 z"
       style="fill:none;stroke:#000000"
       id="path20" />
    <path
       d="m 337.88975,377.00782 a 5.6692915,5.6692915 0 1 0 11.33858,0 5.6692915,5.6692915 0 1 0 -11.33858,0 z"
       style="fill:none;stroke:#000000"
       id="path22" />
    <path
       d="m 468.28345,282.51975 a 5.669295,5.669295 0 1 0 11.33859,0 5.669295,5.669295 0 1 0 -11.33859,0 z"
       style="fill:none;stroke:#000000"
       id="path24" />
    <path
       d="m 949.98424,246.61415 a 6.2362205,6.2362205 0 1 0 12.47244,0 6.2362205,6.2362205 0 1 0 -12.47244,0 z"
       style="fill:none;stroke:#000000"
       id="path26" />
    <path
       d="m 160.06298,246.61415 a 6.2362205,6.2362205 0 1 0 12.47244,0 6.2362205,6.2362205 0 1 0 -12.47244,0 z"
       style="fill:none;stroke:#000000"
       id="path28" />
    <path
       d="m 949.98424,420.47242 a 6.2362205,6.2362205 0 1 0 12.47244,0 6.2362205,6.2362205 0 1 0 -12.47244,0 z"
       style="fill:none;stroke:#000000"
       id="path30" />
    <path
       d="m 160.06298,420.47242 a 6.2362205,6.2362205 0 1 0 12.47244,0 6.2362205,6.2362205 0 1 0 -12.47244,0 z"
       style="fill:none;stroke:#000000"
       id="path32" />
    <path
       d="m 949.98424,518.74012 a 6.2362205,6.2362205 0 1 0 12.47244,0 6.2362205,6.2362205 0 1 0 -12.47244,0 z"
       style="fill:none;stroke:#000000"
       id="path34" />
    <path
       d="m 971.33857,240.94495 a 9.448819,9.448819 0 0 0 -9.44882,-9.44887 H 160.62991 a 9.448819,9.448819 0 0 0 -9.44882,9.44887 v 200.31487 h 71.81102 v -18.8976 h 612.28347 v 18.8976 h 51.02362 v 120.9449 h 85.03937 z"
       style="fill:none;stroke:#000000"
       id="path36" />
    <path
       d="m 701.97164,287.43305 a 3.77953,3.77953 0 1 0 7.55906,0 3.77953,3.77953 0 1 0 -7.55906,0 z"
       style="fill:none;stroke:#000000"
       id="path38" />
    <path
       d="m 239.81101,291.59052 h 11.33858 v 4.4416 a 34.204724,34.204724 0 1 1 -11.33858,0 z"
       style="fill:none;stroke:#000000"
       id="path40" />
    <path
       d="M 669.30524,412.64342 H 540.98235 v -41.5748 h 128.32289 z"
       style="fill:none;stroke:#000000"
       id="path42" />
    <path
       d="m 633.92125,287.43305 a 11.338583,11.338583 0 1 0 22.67716,0 11.338583,11.338583 0 1 0 -22.67716,0 z"
       style="fill:none;stroke:#000000"
       id="path44" />
    <path
       d="M 477.73227,363.77952 H 339.77952 v -68.0315 h 137.95275 v 13.2284 h 4.53543 v 41.5748 h -4.53543 z"
       style="fill:none;stroke:#000000"
       id="path46" />
    <path
       d="M 839.38398,412.64342 H 711.06109 v -41.5748 h 128.32289 z"
       style="fill:none;stroke:#000000"
       id="path48" />
  </g>
  <g
     inkscape:groupmode="layer"
     inkscape:label="0"
     id="g872"
     style="display:inline">
    <g
       aria-label="Hauteur de note"
       id="text15659-2-8"
       style="font-size:15.2324px;line-height:1.25;letter-spacing:0px;word-spacing:0px;stroke-width:0.380811"
       transform="translate(151.18109,-679.37008)">
      <path
         d="m 575.15311,1040.7124 q 0,1.1272 -0.89871,1.1272 -0.53313,0 -0.74639,-0.259 -0.21325,-0.2589 -0.21325,-0.9139 v -9.0633 q 0,-1.0815 0.94441,-1.0815 0.94441,0 0.94441,1.0815 v 3.1836 q 0,0.2741 0.0762,0.3808 0.0914,0.091 0.33511,0.091 h 3.8995 q 0.22848,0 0.31988,-0.091 0.10662,-0.1067 0.10662,-0.3808 v -3.1836 q 0,-1.0815 0.88348,-1.0815 0.97488,0 0.97488,1.0815 v 9.0633 q 0,0.6702 -0.21326,0.9291 -0.19802,0.2438 -0.73115,0.2438 -0.91395,0 -0.91395,-1.1272 v -3.3359 q 0,-0.4875 -0.39604,-0.4875 h -3.96042 q -0.41128,0 -0.41128,0.4875 z"
         style="font-family:Mercedes-Serial;-inkscape-font-specification:'Mercedes-Serial, Normal'"
         id="path30525" />
      <path
         d="m 584.88661,1035.8075 q -0.24372,0.3199 -0.6093,0.3199 -0.35034,0 -0.59406,-0.2437 -0.24372,-0.2437 -0.24372,-0.5941 0,-0.7616 0.99011,-1.3709 1.00534,-0.6093 2.26963,-0.6093 1.47754,0 2.26962,0.6245 0.79209,0.6246 0.79209,1.7822 v 5.0572 q 0,0.594 -0.19802,0.8378 -0.18279,0.2285 -0.68546,0.2285 -0.44174,0 -0.68546,-0.3656 l -0.0914,-0.1523 q -0.0152,-0.046 -0.0762,-0.061 -0.0457,-0.015 -0.0609,-0.03 -0.0457,0.015 -0.0762,0.03 -0.0305,0 -0.18279,0.1219 -0.68545,0.4874 -1.72126,0.4874 -1.34045,0 -2.13253,-0.7159 -0.79209,-0.7159 -0.79209,-1.9193 0,-0.8987 0.50267,-1.5385 0.50267,-0.655 1.35568,-0.8834 0.86825,-0.2285 2.40672,-0.2285 h 0.25895 0.0914 q 0.30465,0 0.38081,-0.091 0.0762,-0.091 0.0762,-0.4875 0,-1.2642 -1.41661,-1.2642 -0.95964,0 -1.49278,0.6702 z m 2.87892,2.1478 -0.39604,0.015 -0.6093,0.015 q -0.97487,0 -1.43184,0.3046 -0.45697,0.3047 -0.45697,0.9444 0,0.5331 0.39604,0.853 0.39604,0.3199 1.05104,0.3199 0.77685,0 1.27952,-0.4874 0.50267,-0.4875 0.50267,-1.2491 v -0.4113 l -0.0152,-0.2589 q -0.10662,-0.046 -0.13709,-0.046 z"
         style="font-family:Mercedes-Serial;-inkscape-font-specification:'Mercedes-Serial, Normal'"
         id="path30527" />
      <path
         d="m 595.59498,1041.5349 q -0.57883,0.3504 -1.46231,0.3504 -0.77685,0 -1.40138,-0.2438 -0.6093,-0.2589 -0.97487,-0.7768 -0.25895,-0.3199 -0.35035,-0.7159 -0.0914,-0.3961 -0.0914,-1.1425 v -4.5849 q 0,-1.1272 0.86824,-1.1272 0.47221,0 0.70069,0.2742 0.22849,0.2589 0.22849,0.8225 v 4.1585 q 0,0.6702 0.0305,0.8834 0.0305,0.1981 0.16755,0.4418 0.27418,0.5331 1.1272,0.5331 0.45697,0 0.83778,-0.198 0.38081,-0.198 0.54837,-0.5484 0.16755,-0.3503 0.16755,-1.3861 v -3.7624 q 0,-1.2186 0.91395,-1.2186 0.48743,0 0.68546,0.2742 0.21325,0.2589 0.21325,0.8834 v 6.2758 q 0,1.1272 -0.91394,1.1272 -0.41128,0 -0.63977,-0.3047 l -0.0914,-0.1218 q -0.0457,-0.061 -0.0914,-0.076 -0.0457,-0.015 -0.0457,-0.03 -0.0457,0.015 -0.10663,0.03 -0.0457,0 -0.13709,0.076 z"
         style="font-family:Mercedes-Serial;-inkscape-font-specification:'Mercedes-Serial, Normal'"
         id="path30529" />
      <path
         d="m 599.11366,1034.9697 q -0.28941,0 -0.4722,-0.2284 -0.18279,-0.2285 -0.18279,-0.5789 0,-0.3199 0.18279,-0.5331 0.19802,-0.2285 0.4722,-0.2285 h 0.28942 q 0.13709,0 0.18279,-0.046 l 0.0152,-0.3046 v -1.0968 q 0,-0.5788 0.19802,-0.8225 0.19802,-0.2437 0.68546,-0.2437 0.91394,0 0.91394,0.9748 l 0.0152,1.2643 q 0,0.1828 0.0457,0.2285 0.0457,0.046 0.21326,0.046 h 0.33511 q 0.85301,0 0.85301,0.7921 0,0.7921 -0.82255,0.7921 h -0.28941 q -0.24372,0 -0.30465,0.061 -0.0609,0.061 -0.0609,0.3351 v 5.4075 q 0,1.0511 -0.85301,1.0511 -0.5179,0 -0.73116,-0.259 -0.21325,-0.2589 -0.21325,-0.8835 v -5.3618 -0.2894 q -0.0609,-0.061 -0.24372,-0.061 z"
         style="font-family:Mercedes-Serial;-inkscape-font-specification:'Mercedes-Serial, Normal'"
         id="path30531" />
      <path
         d="m 605.2523,1038.1533 q -0.30464,0 -0.38081,0.061 -0.0762,0.061 -0.0762,0.2895 0,0.8377 0.44174,1.3099 0.44174,0.4722 1.21859,0.4722 0.51791,0 0.92918,-0.2132 0.41128,-0.2133 0.80732,-0.7159 0.19802,-0.2742 0.36558,-0.3808 0.16755,-0.1067 0.39604,-0.1067 0.33511,0 0.5636,0.2285 0.22848,0.2285 0.22848,0.5789 0,0.4417 -0.48743,1.0053 -1.03581,1.1729 -2.80277,1.1729 -3.51868,0 -3.51868,-4.2042 0,-4.3717 3.50345,-4.3717 1.82789,0 2.71137,1.2186 0.6093,0.8074 0.6093,2.4677 0,0.7921 -0.19803,1.051 -0.0762,0.1066 -0.16755,0.1219 -0.0762,0.015 -0.48744,0.015 z m -0.41127,-1.7974 q 0,0.3199 0.38081,0.3199 h 2.33056 q 0.25895,0 0.33511,-0.061 0.0914,-0.076 0.0914,-0.3503 0,-0.6398 -0.44174,-1.0663 -0.44173,-0.4265 -1.12719,-0.4265 -0.70069,0 -1.14243,0.4418 -0.42651,0.4265 -0.42651,1.1424 z"
         style="font-family:Mercedes-Serial;-inkscape-font-specification:'Mercedes-Serial, Normal'"
         id="path30533" />
      <path
         d="m 615.22951,1041.5349 q -0.57883,0.3504 -1.46231,0.3504 -0.77685,0 -1.40138,-0.2438 -0.6093,-0.2589 -0.97488,-0.7768 -0.25895,-0.3199 -0.35034,-0.7159 -0.0914,-0.3961 -0.0914,-1.1425 v -4.5849 q 0,-1.1272 0.86825,-1.1272 0.47221,0 0.70069,0.2742 0.22849,0.2589 0.22849,0.8225 v 4.1585 q 0,0.6702 0.0305,0.8834 0.0305,0.1981 0.16756,0.4418 0.27418,0.5331 1.1272,0.5331 0.45697,0 0.83778,-0.198 0.38081,-0.198 0.54836,-0.5484 0.16756,-0.3503 0.16756,-1.3861 v -3.7624 q 0,-1.2186 0.91395,-1.2186 0.48743,0 0.68545,0.2742 0.21326,0.2589 0.21326,0.8834 v 6.2758 q 0,1.1272 -0.91395,1.1272 -0.41127,0 -0.63976,-0.3047 l -0.0914,-0.1218 q -0.0457,-0.061 -0.0914,-0.076 -0.0457,-0.015 -0.0457,-0.03 -0.0457,0.015 -0.10663,0.03 -0.0457,0 -0.13709,0.076 z"
         style="font-family:Mercedes-Serial;-inkscape-font-specification:'Mercedes-Serial, Normal'"
         id="path30535" />
      <path
         d="m 620.78933,1040.7124 q 0,0.6549 -0.18279,0.8987 -0.18278,0.2437 -0.68545,0.2437 -0.53314,0 -0.73116,-0.2285 -0.19802,-0.2437 -0.19802,-0.8835 v -6.3824 q 0,-1.1272 0.88348,-1.1272 0.53313,0 0.73115,0.3809 l 0.10663,0.1827 q 0.0609,0.091 0.13709,0.091 l 0.16756,-0.076 0.19802,-0.1219 q 0.57883,-0.4265 1.23382,-0.4265 0.5636,0 0.85302,0.2285 0.30465,0.2285 0.30465,0.6702 0,0.3656 -0.25895,0.6246 -0.24372,0.2437 -0.62453,0.2437 l -0.53314,-0.046 h -0.15232 q -0.54837,0 -0.89871,0.2589 -0.19802,0.1828 -0.27419,0.4418 -0.0762,0.2589 -0.0762,0.8225 z"
         style="font-family:Mercedes-Serial;-inkscape-font-specification:'Mercedes-Serial, Normal'"
         id="path30537" />
      <path
         d="m 635.01636,1040.8038 q 0,1.0358 -0.91394,1.0358 -0.59406,0 -0.89871,-0.5179 -0.0305,-0.061 -0.12186,-0.1067 -0.0762,0 -0.27418,0.1371 -0.5636,0.4875 -1.6451,0.4875 -1.6451,0 -2.46765,-1.1729 -0.30465,-0.4418 -0.45697,-1.1577 -0.1371,-0.7312 -0.1371,-1.7365 0,-2.3153 0.77686,-3.3664 0.36557,-0.5026 1.02057,-0.792 0.65499,-0.2895 1.41661,-0.2895 0.39604,0 0.76162,0.076 0.38081,0.076 0.63976,0.2437 0.27418,0.1523 0.36558,0.1523 0.0914,0 0.13709,-0.137 v -0.3352 -1.6603 q 0,-1.1424 0.88348,-1.1424 0.48744,0 0.70069,0.2285 0.21325,0.2285 0.21325,0.7768 z m -4.75251,-5.2552 q -0.30464,0.655 -0.30464,2.0259 v 0.1218 q 0,1.3862 0.35034,1.9955 0.35035,0.594 1.23383,0.594 0.89871,0 1.27952,-0.6702 0.38081,-0.6702 0.38081,-2.2544 0,-0.7007 -0.0609,-1.1424 -0.0609,-0.457 -0.21326,-0.7312 -0.36557,-0.7006 -1.32521,-0.7006 -1.00534,0 -1.34046,0.7616 z"
         style="font-family:Mercedes-Serial;-inkscape-font-specification:'Mercedes-Serial, Normal'"
         id="path30539" />
      <path
         d="m 638.51981,1038.1533 q -0.30465,0 -0.38081,0.061 -0.0762,0.061 -0.0762,0.2895 0,0.8377 0.44174,1.3099 0.44174,0.4722 1.21859,0.4722 0.5179,0 0.92917,-0.2132 0.41128,-0.2133 0.80732,-0.7159 0.19802,-0.2742 0.36558,-0.3808 0.16756,-0.1067 0.39604,-0.1067 0.33511,0 0.5636,0.2285 0.22849,0.2285 0.22849,0.5789 0,0.4417 -0.48744,1.0053 -1.0358,1.1729 -2.80276,1.1729 -3.51869,0 -3.51869,-4.2042 0,-4.3717 3.50346,-4.3717 1.82788,0 2.71136,1.2186 0.6093,0.8074 0.6093,2.4677 0,0.7921 -0.19802,1.051 -0.0762,0.1066 -0.16756,0.1219 -0.0762,0.015 -0.48744,0.015 z m -0.41128,-1.7974 q 0,0.3199 0.38081,0.3199 h 2.33056 q 0.25895,0 0.33511,-0.061 0.0914,-0.076 0.0914,-0.3503 0,-0.6398 -0.44174,-1.0663 -0.44174,-0.4265 -1.1272,-0.4265 -0.70069,0 -1.14243,0.4418 -0.42651,0.4265 -0.42651,1.1424 z"
         style="font-family:Mercedes-Serial;-inkscape-font-specification:'Mercedes-Serial, Normal'"
         id="path30541" />
      <path
         d="m 650.43151,1040.819 q 0,0.5636 -0.21325,0.8073 -0.19802,0.2285 -0.68546,0.2285 -0.50267,0 -0.70069,-0.2437 -0.19802,-0.259 -0.19802,-0.914 v -6.3824 q 0,-0.9901 0.85302,-0.9901 0.31988,0 0.44174,0.076 0.12185,0.076 0.33511,0.3808 0.0762,0.1219 0.15232,0.1219 l 0.13709,-0.061 0.27419,-0.137 q 0.63976,-0.3961 1.5537,-0.3961 1.21859,0 1.99545,0.6855 0.77685,0.6854 0.77685,1.9954 v 4.783 q 0,1.0663 -0.85302,1.0663 -0.5179,0 -0.73115,-0.2438 -0.21325,-0.2437 -0.21325,-0.853 v -4.5088 q 0,-1.3861 -1.29476,-1.3861 -0.22848,0 -0.39604,0.046 -0.16756,0.03 -0.39604,0.1371 -0.47221,0.2285 -0.655,0.5788 -0.18279,0.3503 -0.18279,1.0358 z"
         style="font-family:Mercedes-Serial;-inkscape-font-specification:'Mercedes-Serial, Normal'"
         id="path30543" />
      <path
         d="m 656.34166,1037.5897 q 0,-2.163 0.83779,-3.214 0.83778,-1.0511 2.5895,-1.0511 3.44253,0 3.44253,4.2651 0,4.2651 -3.44253,4.2651 -3.42729,0 -3.42729,-4.2651 z m 2.07161,-2.0107 q -0.16756,0.3504 -0.22849,0.7769 -0.0609,0.4265 -0.0609,1.2338 0,1.4319 0.28942,2.0107 0.16756,0.3351 0.53313,0.5331 0.36558,0.198 0.82255,0.198 0.99011,0 1.35569,-0.7311 0.16755,-0.3504 0.22848,-0.7769 0.0609,-0.4265 0.0609,-1.2338 0,-1.4318 -0.28941,-2.0107 -0.39604,-0.7464 -1.35569,-0.7464 -0.97487,0 -1.35568,0.7464 z"
         style="font-family:Mercedes-Serial;-inkscape-font-specification:'Mercedes-Serial, Normal'"
         id="path30545" />
      <path
         d="m 664.14065,1034.9697 q -0.28942,0 -0.47221,-0.2284 -0.18279,-0.2285 -0.18279,-0.5789 0,-0.3199 0.18279,-0.5331 0.19802,-0.2285 0.47221,-0.2285 h 0.28941 q 0.13709,0 0.18279,-0.046 l 0.0152,-0.3046 v -1.0968 q 0,-0.5788 0.19803,-0.8225 0.19802,-0.2437 0.68545,-0.2437 0.91395,0 0.91395,0.9748 l 0.0152,1.2643 q 0,0.1828 0.0457,0.2285 0.0457,0.046 0.21325,0.046 h 0.33511 q 0.85302,0 0.85302,0.7921 0,0.7921 -0.82255,0.7921 h -0.28942 q -0.24372,0 -0.30465,0.061 -0.0609,0.061 -0.0609,0.3351 v 5.4075 q 0,1.0511 -0.85302,1.0511 -0.5179,0 -0.73115,-0.259 -0.21326,-0.2589 -0.21326,-0.8835 v -5.3618 -0.2894 q -0.0609,-0.061 -0.24372,-0.061 z"
         style="font-family:Mercedes-Serial;-inkscape-font-specification:'Mercedes-Serial, Normal'"
         id="path30547" />
      <path
         d="m 670.27929,1038.1533 q -0.30465,0 -0.38081,0.061 -0.0762,0.061 -0.0762,0.2895 0,0.8377 0.44174,1.3099 0.44174,0.4722 1.21859,0.4722 0.5179,0 0.92917,-0.2132 0.41128,-0.2133 0.80732,-0.7159 0.19802,-0.2742 0.36558,-0.3808 0.16756,-0.1067 0.39604,-0.1067 0.33511,0 0.5636,0.2285 0.22849,0.2285 0.22849,0.5789 0,0.4417 -0.48744,1.0053 -1.0358,1.1729 -2.80276,1.1729 -3.51869,0 -3.51869,-4.2042 0,-4.3717 3.50346,-4.3717 1.82788,0 2.71136,1.2186 0.6093,0.8074 0.6093,2.4677 0,0.7921 -0.19802,1.051 -0.0762,0.1066 -0.16756,0.1219 -0.0762,0.015 -0.48744,0.015 z m -0.41128,-1.7974 q 0,0.3199 0.38081,0.3199 h 2.33056 q 0.25895,0 0.33511,-0.061 0.0914,-0.076 0.0914,-0.3503 0,-0.6398 -0.44174,-1.0663 -0.44174,-0.4265 -1.1272,-0.4265 -0.70069,0 -1.14243,0.4418 -0.42651,0.4265 -0.42651,1.1424 z"
         style="font-family:Mercedes-Serial;-inkscape-font-specification:'Mercedes-Serial, Normal'"
         id="path30549" />
    </g>
    <g
       aria-label="MIDITEL 1"
       id="text2726"
       style="font-size:19.7517px;line-height:1.25;letter-spacing:-0.21px;word-spacing:-4.41px;stroke-width:0.493789"
       transform="translate(151.18109,-679.37008)">
      <path
         d="m 629.10784,959.50323 3.02201,-14.24097 h 6.30079 l 0.67156,9.44131 4.85892,-9.44131 h 6.16253 l -3.04177,14.24097 h -3.75282 l 2.2517,-10.31038 -5.66874,10.31038 h -3.98985 l -1.10609,-10.27088 -2.11343,10.27088 z"
         style="font-style:italic;font-weight:900;font-family:Ultimate-Serial-ExtraBold;-inkscape-font-specification:'Ultimate-Serial-ExtraBold, Heavy Italic'"
         id="path30615" />
      <path
         d="m 648.88654,959.50323 3.02201,-14.24097 h 4.46389 l -3.02201,14.24097 z"
         style="font-style:italic;font-weight:900;font-family:Ultimate-Serial-ExtraBold;-inkscape-font-specification:'Ultimate-Serial-ExtraBold, Heavy Italic'"
         id="path30617" />
      <path
         d="m 655.17482,959.50323 3.02201,-14.24097 h 5.7675 q 1.69864,0 2.76524,0.19752 1.06659,0.19751 1.89616,0.67155 2.01467,1.1456 2.01467,4.18736 0,1.7184 -0.6518,3.51581 -0.65181,1.77765 -1.73815,3.02201 -1.06659,1.24435 -2.40971,1.93566 -1.32336,0.67156 -2.92325,0.67156 l -2.11343,0.0395 z m 6.89335,-11.75226 -1.95542,9.22405 h 1.2246 q 0.5333,0 0.86908,-0.0593 0.84932,-0.0988 1.56038,-0.63205 0.73081,-0.5333 1.16535,-1.38262 0.45429,-0.84932 0.79007,-2.17269 0.33578,-1.32336 0.33578,-2.3307 0,-1.38262 -0.63206,-2.01467 -0.63205,-0.63206 -2.03442,-0.63206 z"
         style="font-style:italic;font-weight:900;font-family:Ultimate-Serial-ExtraBold;-inkscape-font-specification:'Ultimate-Serial-ExtraBold, Heavy Italic'"
         id="path30619" />
      <path
         d="m 670.27238,959.50323 3.02201,-14.24097 h 4.46389 l -3.02201,14.24097 z"
         style="font-style:italic;font-weight:900;font-family:Ultimate-Serial-ExtraBold;-inkscape-font-specification:'Ultimate-Serial-ExtraBold, Heavy Italic'"
         id="path30621" />
      <path
         d="m 677.84452,948.16576 0.59255,-2.9035 h 12.08804 l -0.6123,2.9035 h -3.81208 l -2.4097,11.33747 h -4.46389 l 2.40971,-11.33747 z"
         style="font-style:italic;font-weight:900;font-family:Ultimate-Serial-ExtraBold;-inkscape-font-specification:'Ultimate-Serial-ExtraBold, Heavy Italic'"
         id="path30623" />
      <path
         d="m 688.20165,959.50323 3.02201,-14.24097 h 10.25113 l -0.59255,2.84424 h -5.92551 l -0.59255,2.68624 h 5.66874 l -0.63205,2.943 h -5.64899 l -0.6123,2.92325 h 6.00451 l -0.59255,2.84424 z"
         style="font-style:italic;font-weight:900;font-family:Ultimate-Serial-ExtraBold;-inkscape-font-specification:'Ultimate-Serial-ExtraBold, Heavy Italic'"
         id="path30625" />
      <path
         d="m 699.86242,959.50323 3.02201,-14.24097 h 4.46389 l -2.40971,11.35723 h 5.55023 l -0.61231,2.88374 z"
         style="font-style:italic;font-weight:900;font-family:Ultimate-Serial-ExtraBold;-inkscape-font-specification:'Ultimate-Serial-ExtraBold, Heavy Italic'"
         id="path30627" />
      <path
         d="m 714.80382,950.71373 0.67156,-3.27878 q 1.34311,-0.4938 2.11343,-0.94809 0.79007,-0.45428 1.56038,-1.2246 h 3.55531 l -3.02201,14.24097 h -4.22687 l 2.15294,-10.15237 q -0.69131,0.47404 -1.30361,0.77032 -0.59255,0.27652 -1.50113,0.59255 z"
         style="font-style:italic;font-weight:900;font-family:Ultimate-Serial-ExtraBold;-inkscape-font-specification:'Ultimate-Serial-ExtraBold, Heavy Italic'"
         id="path30629" />
    </g>
    <path
       id="rect3828"
       style="color:#000000;fill:#000000;stroke-linecap:square;stroke-linejoin:round;-inkscape-stroke:none;paint-order:markers stroke fill"
       d="m 770.07068,249.17551 c -4.13166,0 -7.4961,3.36639 -7.4961,7.49805 v 33.45898 c 0,4.13166 3.36444,7.49805 7.4961,7.49805 h 114.96093 6.10743 4.51367 5.23633 3.38867 28.63086 c 4.13171,0 7.49804,-3.36634 7.49804,-7.49805 v -33.45898 c 0,-4.13172 -3.36633,-7.49805 -7.49804,-7.49805 h -28.43555 -3.58398 -7.4961 -3.79492 -4.56641 z m 0,2.49805 h 114.96093 c 2.79098,0 4.99805,2.20902 4.99805,5 v 0.82617 27.27539 4.06641 1.29101 c 0,2.79098 -2.20707,5 -4.99805,5 H 770.07068 c -2.79098,0 -4.99805,-2.20902 -4.99805,-5 v -33.45898 c 0,-2.79098 2.20707,-5 4.99805,-5 z m 130.81836,0 h 3.58398 28.43555 c 2.79092,0 5,2.20908 5,5 v 33.45898 c 0,2.79092 -2.20908,5 -5,5 h -28.63086 -3.38867 c -2.79092,0 -4.99805,-2.20908 -4.99805,-5 v -21.06836 -12.39062 c 0,-2.79092 2.20713,-5 4.99805,-5 z"
       sodipodi:nodetypes="sssscccccsssscccccsssscccssssssscsssscsscss" />
    <g
       aria-label="Vitesse"
       id="text15659"
       style="font-size:15.771px;line-height:1.25;letter-spacing:0px;word-spacing:0px;stroke-width:0.394276"
       transform="translate(151.18109,-679.37008)">
      <path
         d="m 470.59578,922.48347 q -0.18926,-0.56776 -0.18926,-0.85164 0,-0.36273 0.28388,-0.63084 0.28388,-0.2681 0.67816,-0.2681 0.42581,0 0.66238,0.22079 0.23656,0.22079 0.39427,0.78855 l 2.22371,7.7751 q 0.0158,0.1104 0.0946,0.20503 0.0158,0.0315 0.0788,0.0788 0.0473,-0.0473 0.0631,-0.0788 0.0946,-0.12617 0.1104,-0.20503 l 2.22371,-7.7751 q 0.14194,-0.53621 0.39427,-0.77278 0.25234,-0.23656 0.66238,-0.23656 0.39428,0 0.67816,0.2681 0.28387,0.26811 0.28387,0.63084 0,0.28388 -0.18925,0.85164 l -2.72838,8.7529 q -0.20502,0.67816 -0.55199,0.96203 -0.33119,0.28388 -0.94626,0.28388 -0.59929,0 -0.94626,-0.28388 -0.34696,-0.28387 -0.55198,-0.96203 z"
         style="font-family:Mercedes-Serial;-inkscape-font-specification:'Mercedes-Serial, Normal'"
         id="path30600" />
      <path
         d="m 481.9351,931.47294 q 0,1.00934 -0.89895,1.00934 -0.94626,0 -0.94626,-1.07243 v -6.67113 q 0,-1.13551 0.88317,-1.13551 0.96204,0 0.96204,1.11974 z m -1.9083,-9.55723 q 0,-0.50467 0.25234,-0.80432 0.25234,-0.29965 0.67815,-0.29965 0.44159,0 0.69393,0.29965 0.2681,0.28388 0.2681,0.78855 0,0.4889 -0.25233,0.77278 -0.25234,0.28388 -0.67815,0.28388 -0.96204,0 -0.96204,-1.04089 z"
         style="font-family:Mercedes-Serial;-inkscape-font-specification:'Mercedes-Serial, Normal'"
         id="path30602" />
      <path
         d="m 483.2914,925.35379 q -0.29965,0 -0.48891,-0.23657 -0.18925,-0.23656 -0.18925,-0.59929 0,-0.33119 0.18925,-0.55199 0.20503,-0.23656 0.48891,-0.23656 h 0.29964 q 0.14194,0 0.18926,-0.0473 l 0.0158,-0.31542 v -1.13551 q 0,-0.5993 0.20502,-0.85163 0.20502,-0.25234 0.7097,-0.25234 0.94626,0 0.94626,1.00935 l 0.0158,1.30899 q 0,0.18925 0.0473,0.23656 0.0473,0.0473 0.22079,0.0473 h 0.34697 q 0.88317,0 0.88317,0.82009 0,0.82009 -0.85163,0.82009 h -0.29965 q -0.25234,0 -0.31542,0.0631 -0.0631,0.0631 -0.0631,0.34697 v 5.5987 q 0,1.0882 -0.88317,1.0882 -0.53622,0 -0.75701,-0.26811 -0.22079,-0.2681 -0.22079,-0.91471 v -5.5514 -0.29965 q -0.0631,-0.0631 -0.25234,-0.0631 z"
         style="font-family:Mercedes-Serial;-inkscape-font-specification:'Mercedes-Serial, Normal'"
         id="path30604" />
      <path
         d="m 489.64709,928.64993 q -0.31542,0 -0.39427,0.0631 -0.0789,0.0631 -0.0789,0.29965 0,0.86741 0.45736,1.35631 0.45736,0.4889 1.26168,0.4889 0.53621,0 0.96203,-0.2208 0.42582,-0.22079 0.83586,-0.74123 0.20503,-0.28388 0.37851,-0.39428 0.17348,-0.11039 0.41004,-0.11039 0.34697,0 0.58353,0.23656 0.23657,0.23657 0.23657,0.5993 0,0.45736 -0.50468,1.04088 -1.07242,1.21437 -2.90186,1.21437 -3.6431,0 -3.6431,-4.35279 0,-4.52628 3.62733,-4.52628 1.89252,0 2.80724,1.26168 0.63084,0.83586 0.63084,2.5549 0,0.82009 -0.20503,1.0882 -0.0788,0.1104 -0.17348,0.12617 -0.0788,0.0158 -0.50467,0.0158 z m -0.42582,-1.86098 q 0,0.33119 0.39428,0.33119 h 2.41296 q 0.26811,0 0.34696,-0.0631 0.0946,-0.0789 0.0946,-0.36274 0,-0.66238 -0.45736,-1.10397 -0.45736,-0.44158 -1.16705,-0.44158 -0.72547,0 -1.18283,0.45736 -0.44159,0.44158 -0.44159,1.18282 z"
         style="font-family:Mercedes-Serial;-inkscape-font-specification:'Mercedes-Serial, Normal'"
         id="path30606" />
      <path
         d="m 495.02498,930.44782 q 0,-0.36273 0.23657,-0.61507 0.23656,-0.25233 0.61507,-0.25233 0.22079,0 0.41004,0.11039 0.20503,0.0946 0.5993,0.44159 0.89895,0.75701 1.92406,0.75701 0.63084,0 1.02512,-0.26811 0.41005,-0.28387 0.41005,-0.70969 0,-0.25234 -0.12617,-0.45736 -0.12617,-0.20502 -0.39428,-0.31542 -0.25233,-0.1104 -1.32476,-0.39428 l -1.10397,-0.2681 q -0.42582,-0.12617 -0.66238,-0.23657 -0.0789,-0.0315 -0.37851,-0.22079 -0.94626,-0.58353 -0.94626,-1.81367 0,-1.18282 0.88318,-1.90829 0.89895,-0.74123 2.34988,-0.74123 1.13551,0 2.11331,0.4889 1.11974,0.4889 1.11974,1.21436 0,0.34697 -0.23656,0.5993 -0.23657,0.25234 -0.55199,0.25234 -0.25233,0 -0.4889,-0.14194 l -0.50467,-0.31542 q -0.83586,-0.4889 -1.56133,-0.4889 -0.55198,0 -0.8674,0.22079 -0.31542,0.2208 -0.31542,0.61507 0,0.3785 0.31542,0.5993 0.33119,0.20502 1.21436,0.41004 0.89895,0.18926 1.309,0.31542 0.42581,0.12617 0.78854,0.31542 1.24591,0.63084 1.24591,2.03446 0,1.27745 -0.93049,2.05023 -0.91471,0.75701 -2.4445,0.75701 -1.43516,0 -2.58644,-0.61507 -1.13552,-0.63084 -1.13552,-1.41939 z"
         style="font-family:Mercedes-Serial;-inkscape-font-specification:'Mercedes-Serial, Normal'"
         id="path30608" />
      <path
         d="m 502.78429,930.44782 q 0,-0.36273 0.23657,-0.61507 0.23656,-0.25233 0.61507,-0.25233 0.22079,0 0.41004,0.11039 0.20503,0.0946 0.5993,0.44159 0.89895,0.75701 1.92406,0.75701 0.63084,0 1.02512,-0.26811 0.41004,-0.28387 0.41004,-0.70969 0,-0.25234 -0.12616,-0.45736 -0.12617,-0.20502 -0.39428,-0.31542 -0.25233,-0.1104 -1.32476,-0.39428 l -1.10397,-0.2681 q -0.42582,-0.12617 -0.66238,-0.23657 -0.0789,-0.0315 -0.37851,-0.22079 -0.94626,-0.58353 -0.94626,-1.81367 0,-1.18282 0.88318,-1.90829 0.89894,-0.74123 2.34988,-0.74123 1.13551,0 2.11331,0.4889 1.11974,0.4889 1.11974,1.21436 0,0.34697 -0.23656,0.5993 -0.23657,0.25234 -0.55199,0.25234 -0.25233,0 -0.4889,-0.14194 l -0.50467,-0.31542 q -0.83586,-0.4889 -1.56133,-0.4889 -0.55199,0 -0.86741,0.22079 -0.31542,0.2208 -0.31542,0.61507 0,0.3785 0.31542,0.5993 0.3312,0.20502 1.21437,0.41004 0.89895,0.18926 1.30899,0.31542 0.42582,0.12617 0.78855,0.31542 1.24591,0.63084 1.24591,2.03446 0,1.27745 -0.93049,2.05023 -0.91471,0.75701 -2.4445,0.75701 -1.43516,0 -2.58644,-0.61507 -1.13552,-0.63084 -1.13552,-1.41939 z"
         style="font-family:Mercedes-Serial;-inkscape-font-specification:'Mercedes-Serial, Normal'"
         id="path30610" />
      <path
         d="m 513.08274,928.64993 q -0.31542,0 -0.39428,0.0631 -0.0788,0.0631 -0.0788,0.29965 0,0.86741 0.45736,1.35631 0.45735,0.4889 1.26168,0.4889 0.53621,0 0.96203,-0.2208 0.42581,-0.22079 0.83586,-0.74123 0.20502,-0.28388 0.3785,-0.39428 0.17348,-0.11039 0.41005,-0.11039 0.34696,0 0.58353,0.23656 0.23656,0.23657 0.23656,0.5993 0,0.45736 -0.50467,1.04088 -1.07243,1.21437 -2.90186,1.21437 -3.64311,0 -3.64311,-4.35279 0,-4.52628 3.62733,-4.52628 1.89252,0 2.80724,1.26168 0.63084,0.83586 0.63084,2.5549 0,0.82009 -0.20502,1.0882 -0.0789,0.1104 -0.17348,0.12617 -0.0789,0.0158 -0.50467,0.0158 z m -0.42582,-1.86098 q 0,0.33119 0.39427,0.33119 h 2.41297 q 0.2681,0 0.34696,-0.0631 0.0946,-0.0789 0.0946,-0.36274 0,-0.66238 -0.45736,-1.10397 -0.45736,-0.44158 -1.16706,-0.44158 -0.72546,0 -1.18282,0.45736 -0.44159,0.44158 -0.44159,1.18282 z"
         style="font-family:Mercedes-Serial;-inkscape-font-specification:'Mercedes-Serial, Normal'"
         id="path30612" />
    </g>
    <g
       aria-label="Modulation"
       id="text15659-2"
       style="font-size:15.2324px;line-height:1.25;letter-spacing:0px;word-spacing:0px;stroke-width:0.380811"
       transform="translate(151.18109,-679.37008)">
      <path
         d="m 421.53298,1040.7276 q 0,0.6245 -0.18279,0.8682 -0.18279,0.2285 -0.67023,0.2285 -0.50267,0 -0.71592,-0.2437 -0.21326,-0.2437 -0.21326,-0.8682 v -8.515 q 0,-0.594 0.10663,-0.8682 0.10663,-0.2894 0.39604,-0.4874 0.42651,-0.2895 0.99011,-0.2895 0.19802,0 0.31988,0.03 0.12186,0.031 0.39604,0.1371 0.28942,0.091 0.45697,0.3351 0.16756,0.2437 0.35035,0.853 l 1.87359,6.2605 q 0.0457,0.1676 0.12185,0.3047 0.0152,0.046 0.0762,0.1219 0.0914,0 0.21325,-0.4266 l 1.87359,-6.2605 q 0.0609,-0.2132 0.13709,-0.4112 0.0762,-0.1981 0.16755,-0.3504 0.35035,-0.5941 1.24906,-0.5941 0.5636,0 0.97487,0.2895 0.28942,0.198 0.38081,0.4569 0.0914,0.259 0.0914,0.8987 v 8.515 q 0,0.6245 -0.18279,0.8682 -0.18279,0.2437 -0.67023,0.2437 -0.48743,0 -0.70069,-0.2437 -0.19802,-0.2589 -0.19802,-0.853 l 0.0457,-6.946 q 0,-0.1218 -0.0152,-0.1828 0,-0.061 -0.0305,-0.1218 -0.0305,0.046 -0.0457,0.076 -0.0762,0.1219 -0.0914,0.198 l -2.19347,7.1593 q -0.16755,0.5483 -0.38081,0.7464 -0.19802,0.198 -0.62452,0.198 -0.24372,0 -0.45698,-0.1066 -0.19802,-0.091 -0.31988,-0.259 -0.10662,-0.1828 -0.22848,-0.5788 l -2.163,-7.1593 q -0.0457,-0.1066 -0.0762,-0.1675 -0.0305,-0.061 -0.0609,-0.1066 -0.0152,0.061 -0.0305,0.1675 -0.0152,0.091 -0.0152,0.1371 z"
         style="font-family:Mercedes-Serial;-inkscape-font-specification:'Mercedes-Serial, Normal'"
         id="path30579" />
      <path
         d="m 431.23599,1037.5897 q 0,-2.163 0.83778,-3.214 0.83779,-1.0511 2.58951,-1.0511 3.44252,0 3.44252,4.2651 0,4.2651 -3.44252,4.2651 -3.42729,0 -3.42729,-4.2651 z m 2.07161,-2.0107 q -0.16756,0.3504 -0.22849,0.7769 -0.0609,0.4265 -0.0609,1.2338 0,1.4319 0.28942,2.0107 0.16755,0.3351 0.53313,0.5331 0.36558,0.198 0.82255,0.198 0.99011,0 1.35568,-0.7311 0.16756,-0.3504 0.22849,-0.7769 0.0609,-0.4265 0.0609,-1.2338 0,-1.4318 -0.28942,-2.0107 -0.39604,-0.7464 -1.35568,-0.7464 -0.97487,0 -1.35568,0.7464 z"
         style="font-family:Mercedes-Serial;-inkscape-font-specification:'Mercedes-Serial, Normal'"
         id="path30581" />
      <path
         d="m 445.82863,1040.8038 q 0,1.0358 -0.91395,1.0358 -0.59406,0 -0.89871,-0.5179 -0.0305,-0.061 -0.12186,-0.1067 -0.0762,0 -0.27418,0.1371 -0.5636,0.4875 -1.6451,0.4875 -1.6451,0 -2.46765,-1.1729 -0.30465,-0.4418 -0.45697,-1.1577 -0.13709,-0.7312 -0.13709,-1.7365 0,-2.3153 0.77685,-3.3664 0.36558,-0.5026 1.02057,-0.792 0.65499,-0.2895 1.41661,-0.2895 0.39605,0 0.76162,0.076 0.38081,0.076 0.63976,0.2437 0.27419,0.1523 0.36558,0.1523 0.0914,0 0.13709,-0.137 v -0.3352 -1.6603 q 0,-1.1424 0.88348,-1.1424 0.48744,0 0.70069,0.2285 0.21326,0.2285 0.21326,0.7768 z m -4.75251,-5.2552 q -0.30465,0.655 -0.30465,2.0259 v 0.1218 q 0,1.3862 0.35035,1.9955 0.35034,0.594 1.23382,0.594 0.89871,0 1.27952,-0.6702 0.38081,-0.6702 0.38081,-2.2544 0,-0.7007 -0.0609,-1.1424 -0.0609,-0.457 -0.21325,-0.7312 -0.36558,-0.7006 -1.32522,-0.7006 -1.00534,0 -1.34045,0.7616 z"
         style="font-family:Mercedes-Serial;-inkscape-font-specification:'Mercedes-Serial, Normal'"
         id="path30583" />
      <path
         d="m 451.66263,1041.5349 q -0.57883,0.3504 -1.46231,0.3504 -0.77685,0 -1.40138,-0.2438 -0.6093,-0.2589 -0.97488,-0.7768 -0.25895,-0.3199 -0.35034,-0.7159 -0.0914,-0.3961 -0.0914,-1.1425 v -4.5849 q 0,-1.1272 0.86825,-1.1272 0.47221,0 0.70069,0.2742 0.22849,0.2589 0.22849,0.8225 v 4.1585 q 0,0.6702 0.0305,0.8834 0.0305,0.1981 0.16756,0.4418 0.27418,0.5331 1.1272,0.5331 0.45697,0 0.83778,-0.198 0.38081,-0.198 0.54837,-0.5484 0.16755,-0.3503 0.16755,-1.3861 v -3.7624 q 0,-1.2186 0.91395,-1.2186 0.48743,0 0.68545,0.2742 0.21326,0.2589 0.21326,0.8834 v 6.2758 q 0,1.1272 -0.91395,1.1272 -0.41127,0 -0.63976,-0.3047 l -0.0914,-0.1218 q -0.0457,-0.061 -0.0914,-0.076 -0.0457,-0.015 -0.0457,-0.03 -0.0457,0.015 -0.10663,0.03 -0.0457,0 -0.13709,0.076 z"
         style="font-family:Mercedes-Serial;-inkscape-font-specification:'Mercedes-Serial, Normal'"
         id="path30585" />
      <path
         d="m 457.20722,1040.9408 q 0,0.3961 -0.24372,0.655 -0.24372,0.259 -0.65499,0.259 -0.39604,0 -0.63976,-0.259 -0.24372,-0.2589 -0.24372,-0.6702 v -9.2918 q 0,-1.0815 0.86825,-1.0815 0.91394,0 0.91394,1.0815 z"
         style="font-family:Mercedes-Serial;-inkscape-font-specification:'Mercedes-Serial, Normal'"
         id="path30587" />
      <path
         d="m 460.20798,1035.8075 q -0.24372,0.3199 -0.60929,0.3199 -0.35035,0 -0.59407,-0.2437 -0.24372,-0.2437 -0.24372,-0.5941 0,-0.7616 0.99011,-1.3709 1.00534,-0.6093 2.26963,-0.6093 1.47754,0 2.26962,0.6245 0.79209,0.6246 0.79209,1.7822 v 5.0572 q 0,0.594 -0.19802,0.8378 -0.18279,0.2285 -0.68546,0.2285 -0.44174,0 -0.68546,-0.3656 l -0.0914,-0.1523 q -0.0152,-0.046 -0.0762,-0.061 -0.0457,-0.015 -0.0609,-0.03 -0.0457,0.015 -0.0762,0.03 -0.0305,0 -0.18278,0.1219 -0.68546,0.4874 -1.72127,0.4874 -1.34045,0 -2.13253,-0.7159 -0.79209,-0.7159 -0.79209,-1.9193 0,-0.8987 0.50267,-1.5385 0.50267,-0.655 1.35569,-0.8834 0.86824,-0.2285 2.40672,-0.2285 h 0.25895 0.0914 q 0.30465,0 0.38081,-0.091 0.0762,-0.091 0.0762,-0.4875 0,-1.2642 -1.41661,-1.2642 -0.95964,0 -1.49278,0.6702 z m 2.87893,2.1478 -0.39605,0.015 -0.60929,0.015 q -0.97488,0 -1.43185,0.3046 -0.45697,0.3047 -0.45697,0.9444 0,0.5331 0.39604,0.853 0.39604,0.3199 1.05104,0.3199 0.77685,0 1.27952,-0.4874 0.50267,-0.4875 0.50267,-1.2491 v -0.4113 l -0.0152,-0.2589 q -0.10663,-0.046 -0.1371,-0.046 z"
         style="font-family:Mercedes-Serial;-inkscape-font-specification:'Mercedes-Serial, Normal'"
         id="path30589" />
      <path
         d="m 466.39233,1034.9697 q -0.28942,0 -0.4722,-0.2284 -0.18279,-0.2285 -0.18279,-0.5789 0,-0.3199 0.18279,-0.5331 0.19802,-0.2285 0.4722,-0.2285 h 0.28942 q 0.13709,0 0.18278,-0.046 l 0.0152,-0.3046 v -1.0968 q 0,-0.5788 0.19802,-0.8225 0.19802,-0.2437 0.68546,-0.2437 0.91394,0 0.91394,0.9748 l 0.0152,1.2643 q 0,0.1828 0.0457,0.2285 0.0457,0.046 0.21325,0.046 h 0.33512 q 0.85301,0 0.85301,0.7921 0,0.7921 -0.82255,0.7921 h -0.28942 q -0.24371,0 -0.30464,0.061 -0.0609,0.061 -0.0609,0.3351 v 5.4075 q 0,1.0511 -0.85302,1.0511 -0.5179,0 -0.73115,-0.259 -0.21326,-0.2589 -0.21326,-0.8835 v -5.3618 -0.2894 q -0.0609,-0.061 -0.24371,-0.061 z"
         style="font-family:Mercedes-Serial;-inkscape-font-specification:'Mercedes-Serial, Normal'"
         id="path30591" />
      <path
         d="m 472.42434,1040.8799 q 0,0.9749 -0.86824,0.9749 -0.91395,0 -0.91395,-1.0358 v -6.4433 q 0,-1.0968 0.85302,-1.0968 0.92917,0 0.92917,1.0815 z m -1.84312,-9.2308 q 0,-0.4875 0.24372,-0.7769 0.24372,-0.2894 0.65499,-0.2894 0.42651,0 0.67023,0.2894 0.25895,0.2742 0.25895,0.7616 0,0.4722 -0.24372,0.7464 -0.24372,0.2742 -0.65499,0.2742 -0.92918,0 -0.92918,-1.0053 z"
         style="font-family:Mercedes-Serial;-inkscape-font-specification:'Mercedes-Serial, Normal'"
         id="path30593" />
      <path
         d="m 473.61246,1037.5897 q 0,-2.163 0.83778,-3.214 0.83779,-1.0511 2.58951,-1.0511 3.44252,0 3.44252,4.2651 0,4.2651 -3.44252,4.2651 -3.42729,0 -3.42729,-4.2651 z m 2.07161,-2.0107 q -0.16756,0.3504 -0.22849,0.7769 -0.0609,0.4265 -0.0609,1.2338 0,1.4319 0.28942,2.0107 0.16755,0.3351 0.53313,0.5331 0.36558,0.198 0.82255,0.198 0.99011,0 1.35569,-0.7311 0.16755,-0.3504 0.22848,-0.7769 0.0609,-0.4265 0.0609,-1.2338 0,-1.4318 -0.28941,-2.0107 -0.39605,-0.7464 -1.35569,-0.7464 -0.97487,0 -1.35568,0.7464 z"
         style="font-family:Mercedes-Serial;-inkscape-font-specification:'Mercedes-Serial, Normal'"
         id="path30595" />
      <path
         d="m 483.45259,1040.819 q 0,0.5636 -0.21325,0.8073 -0.19802,0.2285 -0.68546,0.2285 -0.50267,0 -0.70069,-0.2437 -0.19802,-0.259 -0.19802,-0.914 v -6.3824 q 0,-0.9901 0.85301,-0.9901 0.31988,0 0.44174,0.076 0.12186,0.076 0.33511,0.3808 0.0762,0.1219 0.15233,0.1219 l 0.13709,-0.061 0.27418,-0.137 q 0.63976,-0.3961 1.55371,-0.3961 1.21859,0 1.99544,0.6855 0.77685,0.6854 0.77685,1.9954 v 4.783 q 0,1.0663 -0.85301,1.0663 -0.5179,0 -0.73116,-0.2438 -0.21325,-0.2437 -0.21325,-0.853 v -4.5088 q 0,-1.3861 -1.29475,-1.3861 -0.22849,0 -0.39605,0.046 -0.16755,0.03 -0.39604,0.1371 -0.4722,0.2285 -0.65499,0.5788 -0.18279,0.3503 -0.18279,1.0358 z"
         style="font-family:Mercedes-Serial;-inkscape-font-specification:'Mercedes-Serial, Normal'"
         id="path30597" />
    </g>
    <g
       aria-label="Connexion  MIDI"
       id="text15659-2-2"
       style="font-size:15.2324px;line-height:1.25;text-align:center;letter-spacing:0px;word-spacing:0px;text-anchor:middle;stroke-width:0.380811"
       transform="translate(151.18109,-679.37008)">
      <path
         d="m 68.069084,932.40984 q 0.304648,-0.67023 0.853015,-0.67023 0.396042,0 0.63976,0.27419 0.258951,0.25895 0.258951,0.68546 0,0.68545 -0.456972,1.40138 -1.14243,1.78219 -3.503452,1.78219 -4.524023,0 -4.524023,-5.62076 0,-2.65044 0.898712,-4.03658 0.502669,-0.76162 1.431846,-1.20336 0.944408,-0.44174 2.071606,-0.44174 1.568937,0 2.711367,0.85301 0.487437,0.36558 0.792085,0.83778 0.304648,0.45698 0.304648,0.82255 0,0.41128 -0.243718,0.67023 -0.243719,0.25895 -0.654994,0.25895 -0.182788,0 -0.304648,-0.0457 -0.274183,-0.0914 -0.456972,-0.36558 l -0.304648,-0.41127 q -0.670225,-0.95964 -1.888817,-0.95964 -0.624529,0 -1.127198,0.25895 -0.502669,0.25895 -0.76162,0.71592 -0.258951,0.45697 -0.38081,1.14243 -0.121859,0.67023 -0.121859,1.7365 0,1.29475 0.121859,1.98021 0.121859,0.67022 0.456972,1.20336 0.609296,0.97487 1.934515,0.97487 1.431846,0 1.919282,-1.09673 z"
         style="font-family:Mercedes-Serial;-inkscape-font-specification:'Mercedes-Serial, Normal'"
         id="path30552" />
      <path
         d="m 70.582406,931.63299 q 0,-2.163 0.837782,-3.21404 0.837782,-1.05103 2.589508,-1.05103 3.442523,0 3.442523,4.26507 0,4.26507 -3.442523,4.26507 -3.42729,0 -3.42729,-4.26507 z m 2.071607,-2.01068 q -0.167557,0.35035 -0.228486,0.77685 -0.06093,0.42651 -0.06093,1.23383 0,1.43184 0.289416,2.01067 0.167556,0.33512 0.533134,0.53314 0.365577,0.19802 0.822549,0.19802 0.990106,0 1.355684,-0.73116 0.167556,-0.35034 0.228486,-0.77685 0.06093,-0.4265 0.06093,-1.23382 0,-1.43185 -0.289416,-2.01068 -0.396042,-0.74639 -1.355684,-0.74639 -0.974873,0 -1.355683,0.74639 z"
         style="font-family:Mercedes-Serial;-inkscape-font-specification:'Mercedes-Serial, Normal'"
         id="path30554" />
      <path
         d="m 80.422532,934.86226 q 0,0.5636 -0.213253,0.80731 -0.198022,0.22849 -0.685458,0.22849 -0.50267,0 -0.700691,-0.24372 -0.198021,-0.25895 -0.198021,-0.91394 v -6.38238 q 0,-0.9901 0.853014,-0.9901 0.319881,0 0.44174,0.0762 0.121859,0.0762 0.335113,0.38081 0.07616,0.12186 0.152324,0.12186 l 0.137091,-0.0609 0.274184,-0.13709 q 0.63976,-0.39605 1.553704,-0.39605 1.218592,0 1.995445,0.68546 0.776852,0.68546 0.776852,1.99545 v 4.78297 q 0,1.06627 -0.853014,1.06627 -0.517902,0 -0.731155,-0.24372 -0.213254,-0.24372 -0.213254,-0.85302 v -4.50879 q 0,-1.38614 -1.294754,-1.38614 -0.228486,0 -0.396042,0.0457 -0.167557,0.0305 -0.396043,0.13709 -0.472204,0.22849 -0.654993,0.57884 -0.182789,0.35034 -0.182789,1.0358 z"
         style="font-family:Mercedes-Serial;-inkscape-font-specification:'Mercedes-Serial, Normal'"
         id="path30556" />
      <path
         d="m 88.495685,934.86226 q 0,0.5636 -0.213254,0.80731 -0.198021,0.22849 -0.685458,0.22849 -0.502669,0 -0.70069,-0.24372 -0.198021,-0.25895 -0.198021,-0.91394 v -6.38238 q 0,-0.9901 0.853014,-0.9901 0.31988,0 0.44174,0.0762 0.121859,0.0762 0.335112,0.38081 0.07616,0.12186 0.152324,0.12186 l 0.137092,-0.0609 0.274183,-0.13709 q 0.639761,-0.39605 1.553705,-0.39605 1.218592,0 1.995444,0.68546 0.776853,0.68546 0.776853,1.99545 v 4.78297 q 0,1.06627 -0.853015,1.06627 -0.517901,0 -0.731155,-0.24372 -0.213253,-0.24372 -0.213253,-0.85302 v -4.50879 q 0,-1.38614 -1.294754,-1.38614 -0.228486,0 -0.396043,0.0457 -0.167556,0.0305 -0.396042,0.13709 -0.472205,0.22849 -0.654993,0.57884 -0.182789,0.35034 -0.182789,1.0358 z"
         style="font-family:Mercedes-Serial;-inkscape-font-specification:'Mercedes-Serial, Normal'"
         id="path30558" />
      <path
         d="m 96.721163,932.19659 q -0.304648,0 -0.38081,0.0609 -0.07616,0.0609 -0.07616,0.28941 0,0.83778 0.44174,1.30999 0.441739,0.4722 1.218592,0.4722 0.517901,0 0.929176,-0.21325 0.411275,-0.21325 0.807317,-0.71592 0.198022,-0.27419 0.365572,-0.38081 0.16756,-0.10663 0.39605,-0.10663 0.33511,0 0.5636,0.22849 0.22848,0.22848 0.22848,0.57883 0,0.44174 -0.48744,1.00533 -1.035797,1.1729 -2.802755,1.1729 -3.518685,0 -3.518685,-4.20414 0,-4.3717 3.503452,-4.3717 1.827888,0 2.711368,1.21859 0.60929,0.80732 0.60929,2.46765 0,0.79208 -0.19802,1.05104 -0.0762,0.10662 -0.16755,0.12185 -0.0762,0.0152 -0.48744,0.0152 z m -0.411275,-1.79743 q 0,0.31988 0.38081,0.31988 h 2.330558 q 0.25895,0 0.335112,-0.0609 0.09139,-0.0762 0.09139,-0.35034 0,-0.63976 -0.44174,-1.06627 -0.441739,-0.42651 -1.127197,-0.42651 -0.700691,0 -1.14243,0.44174 -0.426508,0.42651 -0.426508,1.14243 z"
         style="font-family:Mercedes-Serial;-inkscape-font-specification:'Mercedes-Serial, Normal'"
         id="path30560" />
      <path
         d="m 103.33201,935.27353 q -0.39604,0.62453 -0.76162,0.62453 -0.36558,0 -0.62453,-0.24372 -0.25895,-0.24372 -0.25895,-0.59406 0,-0.22849 0.33511,-0.76162 l 1.62987,-2.55905 q 0.0609,-0.0914 0.12186,-0.21325 0,-0.0152 0.0152,-0.0457 -0.0152,-0.0305 -0.0152,-0.0457 -0.0457,-0.12186 -0.10663,-0.21326 l -1.53847,-2.33055 q -0.31988,-0.47221 -0.31988,-0.73116 0,-0.33511 0.27418,-0.57883 0.27418,-0.24372 0.63976,-0.24372 0.42651,0 0.77685,0.57883 l 1.1272,1.75173 q 0.13709,0.22848 0.25895,0.22848 0.10663,0 0.24372,-0.22848 l 1.1272,-1.75173 q 0.38081,-0.57883 0.79208,-0.57883 0.35035,0 0.62453,0.24372 0.27419,0.24372 0.27419,0.57883 0,0.16756 -0.0914,0.33511 -0.0762,0.16756 -0.24372,0.39605 l -1.52324,2.33055 q -0.0762,0.0914 -0.0914,0.15233 -0.0152,0.0609 -0.0305,0.10662 0.0152,0.0457 0.0457,0.10663 0.0305,0.0457 0.0914,0.15232 l 1.62986,2.55905 q 0.33511,0.53313 0.33511,0.76162 0,0.33511 -0.25895,0.57883 -0.25895,0.24372 -0.63976,0.24372 -0.36557,0 -0.74638,-0.6093 l -1.30999,-2.08684 q -0.0914,-0.16755 -0.13709,-0.19802 -0.0457,-0.0457 -0.0914,-0.0609 -0.0914,0 -0.24372,0.25895 z"
         style="font-family:Mercedes-Serial;-inkscape-font-specification:'Mercedes-Serial, Normal'"
         id="path30562" />
      <path
         d="m 110.73494,934.92319 q 0,0.97487 -0.86824,0.97487 -0.91395,0 -0.91395,-1.0358 v -6.44331 q 0,-1.09673 0.85302,-1.09673 0.92917,0 0.92917,1.0815 z m -1.84312,-9.23084 q 0,-0.48743 0.24372,-0.77685 0.24372,-0.28942 0.65499,-0.28942 0.42651,0 0.67023,0.28942 0.25895,0.27418 0.25895,0.76162 0,0.4722 -0.24372,0.74639 -0.24372,0.27418 -0.65499,0.27418 -0.92918,0 -0.92918,-1.00534 z"
         style="font-family:Mercedes-Serial;-inkscape-font-specification:'Mercedes-Serial, Normal'"
         id="path30564" />
      <path
         d="m 111.92306,931.63299 q 0,-2.163 0.83778,-3.21404 0.83779,-1.05103 2.58951,-1.05103 3.44252,0 3.44252,4.26507 0,4.26507 -3.44252,4.26507 -3.42729,0 -3.42729,-4.26507 z m 2.07161,-2.01068 q -0.16756,0.35035 -0.22849,0.77685 -0.0609,0.42651 -0.0609,1.23383 0,1.43184 0.28942,2.01067 0.16755,0.33512 0.53313,0.53314 0.36558,0.19802 0.82255,0.19802 0.99011,0 1.35569,-0.73116 0.16755,-0.35034 0.22848,-0.77685 0.0609,-0.4265 0.0609,-1.23382 0,-1.43185 -0.28941,-2.01068 -0.39605,-0.74639 -1.35569,-0.74639 -0.97487,0 -1.35568,0.74639 z"
         style="font-family:Mercedes-Serial;-inkscape-font-specification:'Mercedes-Serial, Normal'"
         id="path30566" />
      <path
         d="m 121.76319,934.86226 q 0,0.5636 -0.21325,0.80731 -0.19802,0.22849 -0.68546,0.22849 -0.50267,0 -0.70069,-0.24372 -0.19802,-0.25895 -0.19802,-0.91394 v -6.38238 q 0,-0.9901 0.85301,-0.9901 0.31988,0 0.44174,0.0762 0.12186,0.0762 0.33511,0.38081 0.0762,0.12186 0.15233,0.12186 l 0.13709,-0.0609 0.27418,-0.13709 q 0.63976,-0.39605 1.55371,-0.39605 1.21859,0 1.99544,0.68546 0.77685,0.68546 0.77685,1.99545 v 4.78297 q 0,1.06627 -0.85301,1.06627 -0.5179,0 -0.73116,-0.24372 -0.21325,-0.24372 -0.21325,-0.85302 v -4.50879 q 0,-1.38614 -1.29475,-1.38614 -0.22849,0 -0.39605,0.0457 -0.16755,0.0305 -0.39604,0.13709 -0.4722,0.22849 -0.65499,0.57884 -0.18279,0.35034 -0.18279,1.0358 z"
         style="font-family:Mercedes-Serial;-inkscape-font-specification:'Mercedes-Serial, Normal'"
         id="path30568" />
      <path
         d="m 84.283943,954.24807 q 0,0.62453 -0.182788,0.86825 -0.182789,0.22848 -0.670226,0.22848 -0.502669,0 -0.715923,-0.24372 -0.213253,-0.24371 -0.213253,-0.86824 v -8.51491 q 0,-0.59407 0.106626,-0.86825 0.106627,-0.28942 0.396043,-0.48744 0.426507,-0.28941 0.990106,-0.28941 0.198021,0 0.31988,0.0305 0.121859,0.0305 0.396043,0.13709 0.289415,0.0914 0.456972,0.33512 0.167556,0.24371 0.350345,0.85301 l 1.873585,6.26052 q 0.0457,0.16755 0.121859,0.30465 0.01523,0.0457 0.07616,0.12185 0.09139,0 0.213254,-0.4265 l 1.873585,-6.26052 q 0.06093,-0.21325 0.137092,-0.41127 0.07616,-0.19803 0.167556,-0.35035 0.350345,-0.59406 1.249057,-0.59406 0.563599,0 0.974873,0.28941 0.289416,0.19802 0.38081,0.45697 0.0914,0.25896 0.0914,0.89872 v 8.51491 q 0,0.62453 -0.182789,0.86824 -0.182789,0.24372 -0.670226,0.24372 -0.487436,0 -0.70069,-0.24372 -0.198021,-0.25895 -0.198021,-0.85301 l 0.0457,-6.94597 q 0,-0.12186 -0.01523,-0.18279 0,-0.0609 -0.03047,-0.12186 -0.03046,0.0457 -0.0457,0.0762 -0.07616,0.12186 -0.09139,0.19802 l -2.193465,7.15923 q -0.167557,0.54837 -0.38081,0.74639 -0.198022,0.19802 -0.624529,0.19802 -0.243718,0 -0.456972,-0.10663 -0.198021,-0.0914 -0.31988,-0.25895 -0.106627,-0.18279 -0.228486,-0.57883 l -2.163001,-7.15923 q -0.0457,-0.10663 -0.07616,-0.16756 -0.03047,-0.0609 -0.06093,-0.10662 -0.01523,0.0609 -0.03046,0.16755 -0.01523,0.0914 -0.01523,0.1371 z"
         style="font-family:Mercedes-Serial;-inkscape-font-specification:'Mercedes-Serial, Normal'"
         id="path30570" />
      <path
         d="m 96.332749,954.05005 q 0,0.74639 -0.198021,1.0358 -0.198021,0.27419 -0.731155,0.27419 -0.594064,0 -0.776853,-0.24372 -0.182789,-0.24372 -0.182789,-1.0815 v -8.94142 q 0,-1.03581 0.974874,-1.03581 0.913944,0 0.913944,0.97488 z"
         style="font-family:Mercedes-Serial;-inkscape-font-specification:'Mercedes-Serial, Normal'"
         id="path30572" />
      <path
         d="m 99.089789,955.19248 q -0.396042,0 -0.548366,-0.0305 -0.137092,-0.0305 -0.304648,-0.18278 -0.152324,-0.15233 -0.152324,-0.67023 v -9.13944 q 0,-0.59406 0.198021,-0.77685 0.198021,-0.18279 0.837782,-0.18279 h 3.183576 q 2.33055,0 3.36636,1.35568 1.05103,1.34045 1.05103,4.3717 0,1.37092 -0.18279,2.2544 -0.18279,0.86824 -0.62453,1.58417 -0.91394,1.41661 -3.07694,1.41661 z m 0.883479,-2.07161 q 0,0.47221 0.472202,0.47221 h 2.02591 q 1.26429,0 1.75173,-0.82255 0.50267,-0.83778 0.50267,-2.92462 0,-1.2186 -0.12186,-1.91929 -0.12186,-0.71592 -0.42651,-1.17289 -0.59406,-0.94441 -2.1173,-0.94441 h -1.56894 q -0.517902,0 -0.517902,0.48744 z"
         style="font-family:Mercedes-Serial;-inkscape-font-specification:'Mercedes-Serial, Normal'"
         id="path30574" />
      <path
         d="m 109.98095,954.05005 q 0,0.74639 -0.19802,1.0358 -0.19802,0.27419 -0.73116,0.27419 -0.59406,0 -0.77685,-0.24372 -0.18279,-0.24372 -0.18279,-1.0815 v -8.94142 q 0,-1.03581 0.97488,-1.03581 0.91394,0 0.91394,0.97488 z"
         style="font-family:Mercedes-Serial;-inkscape-font-specification:'Mercedes-Serial, Normal'"
         id="path30576" />
    </g>
    <path
       id="path0"
       d="m 897.93883,258.34372 v 5.17786 h 0.5121 0.5121 v -4.66577 -4.66577 h 4.66577 4.66578 v -0.5121 -0.51209 h -5.17787 -5.17788 v 5.17787 m 27.57738,-4.66578 v 0.5121 h 4.66578 4.66577 v 4.66577 4.66577 h 0.5121 0.5121 v -5.17786 -5.17787 h -5.17787 -5.17788 v 0.51209 m -17.86214,5.21752 c -2.04042,0.53428 -2.18959,3.44043 -0.21337,4.15576 l 0.22798,0.0826 0.0214,2.21378 c 0.0227,2.34815 0.036,2.52995 0.24458,3.33479 0.46562,1.7969 1.63159,3.47953 3.1217,4.50474 0.32755,0.22542 0.32803,0.20504 -0.01,0.44012 -1.50082,1.0443 -2.64622,2.69933 -3.11194,4.49671 -0.20854,0.80472 -0.22191,0.98684 -0.24457,3.33344 l -0.0214,2.21257 -0.20626,0.0726 c -2.25369,0.79329 -1.67029,4.24587 0.71751,4.24587 2.49012,0 3.04508,-3.52674 0.67417,-4.28476 l -0.14225,-0.0455 9e-5,-1.75144 c 10e-5,-2.44442 0.0527,-2.99708 0.37857,-3.97589 0.44676,-1.34205 1.32785,-2.54825 2.46632,-3.37651 0.50413,-0.36681 0.0326,-0.11625 6.73313,-3.57832 2.00477,-1.03586 2.24005,-1.18018 2.67827,-1.64317 0.67303,-0.71086 1.05814,-1.65929 1.05814,-2.60563 v -0.27093 l 0.20304,-0.064 c 0.63576,-0.20038 1.22534,-0.87711 1.37355,-1.57659 0.45283,-2.13612 -2.1452,-3.54627 -3.685,-2.00013 -1.15269,1.15744 -0.64164,3.16694 0.923,3.62916 0.41499,0.12266 0.005,1.50851 -0.64856,2.19187 -0.27615,0.28877 -0.58246,0.47417 -1.94967,1.18058 l -1.3369,0.69075 -1.33733,-0.69096 c -2.10965,-1.0899 -2.49183,-1.46856 -2.70274,-2.67759 -0.0982,-0.5635 -0.0871,-0.63813 0.10415,-0.69465 1.5654,-0.4625 2.07626,-2.47115 0.923,-3.62916 -1.54008,-1.54644 -4.13794,-0.13638 -3.68501,2.00012 0.14765,0.69674 0.73789,1.37622 1.36806,1.57489 l 0.19744,0.0622 0.0229,0.44058 c 0.0517,0.9949 0.44571,1.86736 1.15117,2.54863 0.40551,0.39178 0.59555,0.51181 1.76636,1.11591 0.55752,0.28761 1.00542,0.53637 0.99537,0.5527 -0.01,0.0163 -0.38522,0.21875 -0.83349,0.44986 -0.44837,0.23113 -1.17924,0.60788 -1.6242,0.83728 l -0.80892,0.41699 -0.32623,-0.1944 c -1.43567,-0.85589 -2.50984,-2.19443 -3.04005,-3.78811 -0.31342,-0.94235 -0.37222,-1.60163 -0.35657,-3.99777 l 0.0112,-1.70283 0.15373,-0.0453 c 0.48449,-0.14311 0.99877,-0.57043 1.2386,-1.02913 0.89381,-1.71022 -0.61821,-3.64652 -2.46906,-3.16172 m 17.4607,-0.0213 c -2.12253,0.46183 -2.26119,3.59217 -0.18653,4.21219 l 0.15174,0.0453 0.0103,1.66488 c 0.0206,3.19891 -0.18018,4.19465 -1.14112,5.66074 -0.89105,1.35943 -1.42268,1.7527 -4.55957,3.37331 -6.46636,3.34058 -5.94858,3.05655 -6.44265,3.53375 -0.70547,0.6813 -1.0995,1.55376 -1.15118,2.54862 l -0.0229,0.4406 -0.19744,0.0622 c -0.8553,0.26965 -1.46953,1.22175 -1.41036,2.1862 0.11523,1.87834 2.40477,2.73175 3.72608,1.38882 1.15146,-1.17031 0.64448,-3.16637 -0.92178,-3.62915 -0.43547,-0.1287 0.0385,-1.62486 0.71485,-2.25655 0.31684,-0.29588 0.45302,-0.37658 1.8831,-1.11591 l 1.33676,-0.69103 1.33676,0.69076 c 1.44933,0.74889 1.65588,0.87399 1.94948,1.18085 0.48602,0.50793 0.73287,1.0775 0.79574,1.83579 l 0.0253,0.30554 -0.16606,0.049 c -1.57033,0.46421 -2.08309,2.47068 -0.92784,3.63068 1.5398,1.54616 4.13784,0.13598 3.68501,-2.00011 -0.14765,-0.69678 -0.73789,-1.37624 -1.36806,-1.57492 l -0.19744,-0.0622 -0.0229,-0.4406 c -0.0517,-0.9949 -0.44572,-1.86736 -1.15118,-2.54862 -0.4055,-0.39178 -0.59555,-0.51184 -1.76635,-1.11591 -0.55752,-0.28761 -1.00542,-0.53637 -0.99537,-0.5526 0.0167,-0.0269 0.35733,-0.20569 2.53896,-1.33126 l 0.71949,-0.37126 0.20987,0.11815 c 1.4756,0.83129 2.61596,2.21341 3.14921,3.81674 0.32604,0.9803 0.37952,1.54028 0.37962,3.97854 l 9e-5,1.75145 -0.14225,0.0455 c -2.61786,0.8369 -1.58039,4.7902 1.10955,4.22794 2.1142,-0.44193 2.31828,-3.47231 0.28212,-4.18906 l -0.20626,-0.0727 -0.0215,-2.21253 c -0.0199,-2.0626 -0.027,-2.24335 -0.1048,-2.66772 -0.39592,-2.16038 -1.58105,-4.02604 -3.30093,-5.19628 -0.27682,-0.18844 -0.27757,-0.18939 -0.18948,-0.24658 1.63416,-1.06079 2.87059,-2.79585 3.35234,-4.70426 0.21261,-0.84229 0.21859,-0.92414 0.2422,-3.29363 l 0.0221,-2.21255 0.20627,-0.0726 c 2.54375,-0.89541 1.40481,-4.76374 -1.23362,-4.18963 M 908.60374,259.94 c 0.59679,0.19496 0.92349,0.99829 0.63121,1.55212 -0.30574,0.57943 -0.96047,0.81234 -1.51618,0.53941 -1.30035,-0.6386 -0.49484,-2.54228 0.88497,-2.09153 m 17.46508,0.0326 c 0.39821,0.1798 0.66355,0.58067 0.66554,1.00523 0.005,1.04951 -1.22761,1.5635 -1.94588,0.81158 -0.86838,-0.90916 0.13561,-2.33383 1.28034,-1.81681 m -13.33037,3.30758 c 0.75895,0.23898 0.98465,1.27948 0.40466,1.86527 -0.87446,0.88318 -2.3584,-0.12807 -1.84223,-1.2554 0.26117,-0.57042 0.81576,-0.8057 1.43757,-0.60987 m 9.19565,0.0305 c 0.66602,0.30082 0.8775,1.1307 0.43681,1.71382 -0.46345,0.61319 -1.37802,0.61016 -1.82146,-0.006 -0.68497,-0.95193 0.31826,-2.18931 1.38465,-1.70766 m -9.11731,18.11398 c 0.73154,0.34633 0.88982,1.26972 0.31599,1.84354 -0.54074,0.54073 -1.45673,0.39423 -1.80515,-0.28869 -0.48611,-0.95285 0.5268,-2.01045 1.48916,-1.55485 m 9.04506,-0.0306 c 0.77147,0.2886 0.99034,1.28925 0.40911,1.87059 -0.58246,0.58237 -1.58143,0.36385 -1.87057,-0.40913 -0.34131,-0.91199 0.54946,-1.80275 1.46146,-1.46146 m -23.92385,7.06863 v 5.17786 h 5.17787 5.17787 v -0.51208 -0.51211 h -4.66577 -4.66578 v -4.66574 -4.66579 h -0.51153 -0.5121 v 5.17786 m 36.90893,-0.51207 v 4.66574 h -4.66577 -4.66578 v 0.51211 0.51208 h 5.17788 5.17787 v -5.17786 -5.17786 h -0.5121 -0.5121 v 4.66579 m -26.28253,-3.2355 c 0.29104,0.0926 0.64704,0.44883 0.73097,0.73172 0.33922,1.14227 -1.05407,1.99357 -1.89182,1.15591 -0.84022,-0.84031 0.0258,-2.24859 1.16085,-1.88763 m 17.48897,0.04 c 0.73561,0.32538 0.92063,1.27928 0.35733,1.84249 -0.57042,0.57046 -1.5252,0.39376 -1.85095,-0.34262 -0.41232,-0.9322 0.56293,-1.91162 1.49362,-1.49987"
       stroke="none"
       fill="#000000"
       fill-rule="evenodd"
       style="display:inline;stroke-width:0.0948325" />
  </g>
</svg>
